<svg width="173" height="32" viewBox="0 0 173 32" fill="none" xmlns="http://www.w3.org/2000/svg">
<path fill-rule="evenodd" clip-rule="evenodd" d="M28.3636 10.8763L15.8961 0.321324C15.3896 -0.107108 14.6494 -0.107108 14.1429 0.321324L1.71429 10.409C0.623377 11.2658 0 12.5901 0 13.9922V26.4557C0 28.4031 1.5974 30 3.54546 30H6.07908C6.653 29.7572 7.03286 29.1243 7.25855 28.3559C7.36779 27.9839 7.43397 27.6027 7.4697 27.262C7.42287 27.2696 7.37443 27.2736 7.32468 27.2736H3.54546C3.11688 27.2736 2.72727 26.8841 2.72727 26.4557V13.9922C2.72727 13.408 3 12.8627 3.42857 12.5122L15 3.12561L26.6104 12.9406C27.039 13.2911 27.2727 13.8364 27.2727 14.3817V26.4557C27.2727 26.9231 26.9221 27.2736 26.4545 27.2736H22.6364C22.5876 27.2736 22.5393 27.2686 22.492 27.259C22.5271 27.6056 22.5938 27.9956 22.7055 28.376C22.9252 29.124 23.291 29.7437 23.8397 30H26.4545C28.4026 30 30 28.4031 30 26.4557V14.4206C30 13.0574 29.4156 11.7722 28.3636 10.8763ZM22.8183 30C22.4662 29.5863 22.2365 29.0605 22.0887 28.5572C21.8648 27.7949 21.8031 27.001 21.8194 26.4978C21.8186 26.4838 21.8182 26.4698 21.8182 26.4557V23.5735C21.8182 22.2103 21.1948 20.8861 20.1429 20.0292L17.5232 17.836C17.2709 18.1415 16.8901 18.5029 16.5152 18.8342C16.1591 19.1489 15.7913 19.451 15.5072 19.6757L18.3896 22.0935C18.8182 22.444 19.0909 22.9893 19.0909 23.5735V26.4557C19.0909 28.4031 20.6883 30 22.6364 30H22.8183ZM7.36364 30H7.1284C7.49034 29.5834 7.72511 29.0485 7.87535 28.537C8.10628 27.7508 8.16472 26.9309 8.14286 26.431V23.5735C8.14286 22.2103 8.76624 20.925 9.81818 20.0292L12.8807 17.4904C13.1561 17.2916 13.6263 16.9087 14.0773 16.5016C14.5116 16.1095 14.9606 15.6662 15.1919 15.3313C15.7206 14.6855 16.201 13.8325 16.1299 12.9796C16.0909 12.3564 15.6623 11.6943 15.039 11.6943C14.4156 11.6943 13.987 12.3564 13.9481 12.9796C13.9185 13.689 14.248 14.3985 14.647 14.9887C14.4598 15.2509 14.0742 15.6383 13.6466 16.0244C13.267 16.367 12.8789 16.6869 12.6188 16.8843C11.8666 15.8721 11.1214 14.4518 11.2208 12.8627C11.3377 10.6816 13.013 9.00682 15.039 9.00682C17.0649 9.00682 18.7403 10.7205 18.8571 12.8627C18.9698 14.7014 17.9975 16.287 17.1249 17.3061L17.1223 17.3042C17.1148 17.3147 17.107 17.3254 17.0989 17.3363C17.0745 17.3645 17.0502 17.3923 17.026 17.4197L17.0304 17.4233C16.8193 17.6801 16.4715 18.015 16.0896 18.3524C15.6975 18.6988 15.2898 19.0305 15.004 19.2536L15 19.2502L11.6104 22.0935C11.1429 22.483 10.9091 22.9893 10.9091 23.5735V26.4557C10.9091 28.4031 9.31169 30 7.36364 30Z" fill="white"/>
<path d="M37.517 27V9.54545H44.5057C45.7898 9.54545 46.8608 9.7358 47.7188 10.1165C48.5767 10.4972 49.2216 11.0256 49.6534 11.7017C50.0852 12.3722 50.3011 13.1449 50.3011 14.0199C50.3011 14.7017 50.1648 15.3011 49.892 15.8182C49.6193 16.3295 49.2443 16.75 48.767 17.0795C48.2955 17.4034 47.7557 17.6335 47.1477 17.7699V17.9403C47.8125 17.9687 48.4347 18.1562 49.0142 18.5028C49.5994 18.8494 50.0739 19.3352 50.4375 19.9602C50.8011 20.5795 50.983 21.3182 50.983 22.1761C50.983 23.1023 50.7528 23.929 50.2926 24.6562C49.8381 25.3778 49.1648 25.9489 48.2727 26.3693C47.3807 26.7898 46.2813 27 44.9744 27H37.517ZM41.2074 23.983H44.2159C45.2443 23.983 45.9943 23.7869 46.4659 23.3949C46.9375 22.9972 47.1733 22.4687 47.1733 21.8097C47.1733 21.3267 47.0568 20.9006 46.8239 20.5312C46.5909 20.1619 46.2585 19.8722 45.8267 19.6619C45.4006 19.4517 44.892 19.3466 44.3011 19.3466H41.2074V23.983ZM41.2074 16.8494H43.9432C44.4489 16.8494 44.8977 16.7614 45.2898 16.5852C45.6875 16.4034 46 16.1477 46.2273 15.8182C46.4602 15.4886 46.5767 15.0938 46.5767 14.6335C46.5767 14.0028 46.3523 13.4943 45.9034 13.108C45.4602 12.7216 44.8295 12.5284 44.0114 12.5284H41.2074V16.8494ZM59.282 27.2557C57.9354 27.2557 56.7763 26.983 55.8047 26.4375C54.8388 25.8864 54.0945 25.108 53.5717 24.1023C53.049 23.0909 52.7876 21.8949 52.7876 20.5142C52.7876 19.1676 53.049 17.9858 53.5717 16.9688C54.0945 15.9517 54.8303 15.1591 55.7791 14.5909C56.7337 14.0227 57.853 13.7386 59.1371 13.7386C60.0007 13.7386 60.8047 13.8778 61.549 14.1562C62.299 14.429 62.9524 14.8409 63.5092 15.392C64.0717 15.9432 64.5092 16.6364 64.8217 17.4716C65.1342 18.3011 65.2905 19.2727 65.2905 20.3864V21.3835H54.2365V19.1335H61.8729C61.8729 18.6108 61.7592 18.1477 61.532 17.7443C61.3047 17.3409 60.9893 17.0256 60.5859 16.7983C60.1882 16.5653 59.7251 16.4489 59.1967 16.4489C58.6456 16.4489 58.157 16.5767 57.7308 16.8324C57.3104 17.0824 56.9808 17.4205 56.7422 17.8466C56.5036 18.267 56.3814 18.7358 56.3757 19.2528V21.392C56.3757 22.0398 56.495 22.5994 56.7337 23.071C56.978 23.5426 57.3217 23.9062 57.7649 24.1619C58.2081 24.4176 58.7337 24.5455 59.3416 24.5455C59.745 24.5455 60.1143 24.4886 60.4496 24.375C60.7848 24.2614 61.0717 24.0909 61.3104 23.8636C61.549 23.6364 61.7308 23.358 61.8558 23.0284L65.2138 23.25C65.0433 24.0568 64.6939 24.7614 64.1655 25.3636C63.6428 25.9602 62.9666 26.4261 62.1371 26.7614C61.3132 27.0909 60.3615 27.2557 59.282 27.2557ZM67.728 9.54545H72.2791L77.0859 21.2727H77.2905L82.0973 9.54545H86.6484V27H83.0689V15.6392H82.924L78.407 26.9148H75.9695L71.4524 15.5966H71.3075V27H67.728V9.54545ZM91.8622 31.9091C91.402 31.9091 90.9702 31.8722 90.5668 31.7983C90.169 31.7301 89.8395 31.642 89.5781 31.5341L90.3963 28.8239C90.8224 28.9545 91.206 29.0256 91.5469 29.0369C91.8935 29.0483 92.1918 28.9688 92.4418 28.7983C92.6974 28.6278 92.9048 28.3381 93.0639 27.929L93.277 27.375L88.581 13.9091H92.3991L95.1094 23.5227H95.2457L97.9815 13.9091H101.825L96.7372 28.4148C96.4929 29.1193 96.1605 29.733 95.7401 30.2557C95.3253 30.7841 94.7997 31.1903 94.1634 31.4744C93.527 31.7642 92.7599 31.9091 91.8622 31.9091ZM115.325 15.1875C115.206 14.7727 115.038 14.4062 114.822 14.0881C114.607 13.7642 114.342 13.4915 114.03 13.2699C113.723 13.0426 113.371 12.8693 112.973 12.75C112.581 12.6307 112.146 12.571 111.669 12.571C110.777 12.571 109.993 12.7926 109.317 13.2358C108.646 13.679 108.124 14.3239 107.749 15.1705C107.374 16.0114 107.186 17.0398 107.186 18.2557C107.186 19.4716 107.371 20.5057 107.74 21.358C108.109 22.2102 108.632 22.8608 109.308 23.3097C109.984 23.7528 110.783 23.9744 111.703 23.9744C112.538 23.9744 113.251 23.8267 113.842 23.5312C114.439 23.2301 114.893 22.8068 115.206 22.2614C115.524 21.7159 115.683 21.071 115.683 20.3267L116.433 20.4375H111.933V17.6591H119.237V19.858C119.237 21.392 118.913 22.7102 118.266 23.8125C117.618 24.9091 116.726 25.7557 115.589 26.3523C114.453 26.9432 113.152 27.2386 111.686 27.2386C110.05 27.2386 108.612 26.8778 107.374 26.1562C106.135 25.429 105.169 24.3977 104.476 23.0625C103.788 21.7216 103.445 20.1307 103.445 18.2898C103.445 16.875 103.649 15.6136 104.058 14.5057C104.473 13.392 105.053 12.4489 105.797 11.6761C106.541 10.9034 107.408 10.3153 108.396 9.91193C109.385 9.50852 110.456 9.30682 111.609 9.30682C112.598 9.30682 113.518 9.4517 114.371 9.74148C115.223 10.0256 115.979 10.429 116.638 10.9517C117.303 11.4744 117.845 12.0966 118.266 12.8182C118.686 13.5341 118.956 14.3239 119.075 15.1875H115.325ZM130.336 21.4261V13.9091H133.967V27H130.481V24.6222H130.344C130.049 25.3892 129.558 26.0057 128.87 26.4716C128.188 26.9375 127.356 27.1705 126.373 27.1705C125.498 27.1705 124.728 26.9716 124.063 26.5739C123.398 26.1761 122.879 25.6108 122.504 24.8778C122.134 24.1449 121.947 23.267 121.941 22.2443V13.9091H125.572V21.5966C125.577 22.3693 125.785 22.9801 126.194 23.429C126.603 23.8778 127.151 24.1023 127.839 24.1023C128.276 24.1023 128.685 24.0028 129.066 23.804C129.447 23.5994 129.754 23.2983 129.987 22.9006C130.225 22.5028 130.342 22.0114 130.336 21.4261ZM142.837 27.2557C141.49 27.2557 140.331 26.983 139.359 26.4375C138.393 25.8864 137.649 25.108 137.126 24.1023C136.604 23.0909 136.342 21.8949 136.342 20.5142C136.342 19.1676 136.604 17.9858 137.126 16.9688C137.649 15.9517 138.385 15.1591 139.334 14.5909C140.288 14.0227 141.408 13.7386 142.692 13.7386C143.555 13.7386 144.359 13.8778 145.104 14.1562C145.854 14.429 146.507 14.8409 147.064 15.392C147.626 15.9432 148.064 16.6364 148.376 17.4716C148.689 18.3011 148.845 19.2727 148.845 20.3864V21.3835H137.791V19.1335H145.428C145.428 18.6108 145.314 18.1477 145.087 17.7443C144.859 17.3409 144.544 17.0256 144.141 16.7983C143.743 16.5653 143.28 16.4489 142.751 16.4489C142.2 16.4489 141.712 16.5767 141.286 16.8324C140.865 17.0824 140.536 17.4205 140.297 17.8466C140.058 18.267 139.936 18.7358 139.93 19.2528V21.392C139.93 22.0398 140.05 22.5994 140.288 23.071C140.533 23.5426 140.876 23.9062 141.32 24.1619C141.763 24.4176 142.288 24.5455 142.896 24.5455C143.3 24.5455 143.669 24.4886 144.004 24.375C144.339 24.2614 144.626 24.0909 144.865 23.8636C145.104 23.6364 145.286 23.358 145.411 23.0284L148.768 23.25C148.598 24.0568 148.249 24.7614 147.72 25.3636C147.197 25.9602 146.521 26.4261 145.692 26.7614C144.868 27.0909 143.916 27.2557 142.837 27.2557ZM162.107 17.642L158.783 17.8466C158.726 17.5625 158.604 17.3068 158.416 17.0795C158.229 16.8466 157.982 16.6619 157.675 16.5256C157.374 16.3835 157.013 16.3125 156.592 16.3125C156.03 16.3125 155.555 16.4318 155.169 16.6705C154.783 16.9034 154.589 17.2159 154.589 17.608C154.589 17.9205 154.714 18.1847 154.964 18.4006C155.214 18.6165 155.643 18.7898 156.251 18.9205L158.621 19.3977C159.893 19.6591 160.842 20.0795 161.467 20.6591C162.092 21.2386 162.405 22 162.405 22.9432C162.405 23.8011 162.152 24.554 161.646 25.2017C161.146 25.8494 160.459 26.3551 159.584 26.7188C158.714 27.0767 157.712 27.2557 156.575 27.2557C154.842 27.2557 153.462 26.8949 152.433 26.1733C151.411 25.446 150.811 24.4574 150.635 23.2074L154.206 23.0199C154.314 23.5483 154.575 23.9517 154.99 24.2301C155.405 24.5028 155.936 24.6392 156.584 24.6392C157.22 24.6392 157.732 24.517 158.118 24.2727C158.51 24.0227 158.709 23.7017 158.714 23.3097C158.709 22.9801 158.57 22.7102 158.297 22.5C158.024 22.2841 157.604 22.1193 157.036 22.0057L154.768 21.554C153.49 21.2983 152.538 20.8551 151.913 20.2244C151.294 19.5937 150.984 18.7898 150.984 17.8125C150.984 16.9716 151.212 16.2472 151.666 15.6392C152.126 15.0312 152.771 14.5625 153.601 14.233C154.436 13.9034 155.413 13.7386 156.533 13.7386C158.186 13.7386 159.487 14.0881 160.436 14.7869C161.391 15.4858 161.947 16.4375 162.107 17.642ZM171.654 13.9091V16.6364H163.771V13.9091H171.654ZM165.56 10.7727H169.191V22.9773C169.191 23.3125 169.242 23.5739 169.344 23.7614C169.447 23.9432 169.589 24.071 169.771 24.1449C169.958 24.2187 170.174 24.2557 170.418 24.2557C170.589 24.2557 170.759 24.2415 170.93 24.2131C171.1 24.179 171.231 24.1534 171.322 24.1364L171.893 26.8381C171.711 26.8949 171.455 26.9602 171.126 27.0341C170.796 27.1136 170.396 27.1619 169.924 27.179C169.049 27.2131 168.282 27.0966 167.623 26.8295C166.969 26.5625 166.461 26.1477 166.097 25.5852C165.734 25.0227 165.555 24.3125 165.56 23.4545V10.7727Z" fill="white"/>
</svg>
