<svg width="24" height="24" viewBox="0 0 24 24" fill="none" xmlns="http://www.w3.org/2000/svg">
<path d="M17.9334 16.5387L17.8635 16.6261L17.9426 16.7052L22.1369 20.8995L20.8995 22.1369L16.7052 17.9426L16.6261 17.8635L16.5387 17.9334C15.0202 19.1483 13.0946 19.875 11 19.875C6.10104 19.875 2.125 15.899 2.125 11C2.125 6.10104 6.10104 2.125 11 2.125C15.899 2.125 19.875 6.10104 19.875 11C19.875 13.0946 19.1483 15.0202 17.9334 16.5387ZM16.1131 15.9632L16.1131 15.9632L16.1144 15.9618C17.3589 14.6792 18.125 12.9294 18.125 11C18.125 7.06346 14.9365 3.875 11 3.875C7.06346 3.875 3.875 7.06346 3.875 11C3.875 14.9365 7.06346 18.125 11 18.125C12.9294 18.125 14.6792 17.3589 15.9618 16.1144L15.9632 16.1131L16.1131 15.9632Z" fill="white" stroke="white" stroke-width="0.25"/>
</svg>
