<svg width="18" height="16" viewBox="0 0 18 16" fill="none" xmlns="http://www.w3.org/2000/svg">
<path fill-rule="evenodd" clip-rule="evenodd" d="M4.58056 0.726287C5.96305 0.444471 7.45111 0.291504 8.99994 0.291504C10.5488 0.291504 12.0369 0.444471 13.4193 0.726287L13.5254 0.747887C15.1042 1.06925 16.1562 1.28337 17.0628 2.44894C17.9596 3.60199 17.9591 4.93917 17.9583 7.01017V8.9895C17.9591 11.0605 17.9596 12.3977 17.0628 13.5508C16.1562 14.7163 15.1042 14.9304 13.5254 15.2518L13.4193 15.2734C12.0369 15.5552 10.5488 15.7082 8.99994 15.7082C7.45111 15.7082 5.96305 15.5552 4.58056 15.2734L4.47449 15.2518C2.89563 14.9304 1.84363 14.7163 0.93709 13.5508C0.0402738 12.3977 0.0407738 11.0605 0.0415488 8.9895V7.01017C0.0407738 4.93917 0.0402738 3.60199 0.93709 2.44894C1.84363 1.28337 2.89563 1.06925 4.47449 0.747887L4.58056 0.726287ZM8.41202 4.8767C8.84411 5.05805 9.36902 5.3512 10.0108 5.70961C10.0953 5.75679 10.1802 5.80365 10.2652 5.85057C10.6847 6.08215 11.1066 6.31509 11.4957 6.59484C11.8454 6.84625 12.1771 7.15784 12.2869 7.61225C12.3486 7.86734 12.3486 8.13234 12.2869 8.38742C12.1771 8.84184 11.8454 9.15342 11.4957 9.40484C11.1066 9.68459 10.6846 9.91759 10.2651 10.1492C10.1801 10.1961 10.0953 10.2429 10.0108 10.2901C9.36902 10.6485 8.84419 10.9416 8.41202 11.123C7.70952 11.4178 6.9646 11.4417 6.35234 10.94C5.96914 10.626 5.83368 10.1764 5.77425 9.72342C5.63062 8.6285 5.63056 7.37167 5.77425 6.27627C5.83368 5.82322 5.96914 5.37365 6.35234 5.05968C6.9646 4.55803 7.70952 4.58188 8.41202 4.8767Z" fill="white"/>
</svg>
